<svg width="20" height="20" viewBox="0 0 20 20" fill="none" xmlns="http://www.w3.org/2000/svg">
<path d="M0.833313 18.3167C0.833313 18.7834 1.20831 19.1584 1.67498 19.1584H12.5C12.9666 19.1584 13.3416 18.7834 13.3416 18.3167V17.5H0.833313V18.3167ZM7.08331 7.49171C3.95831 7.49171 0.833313 9.16671 0.833313 12.5H13.3333C13.3333 9.16671 10.2083 7.49171 7.08331 7.49171ZM3.01665 10.8334C3.94165 9.54171 5.90831 9.15837 7.08331 9.15837C8.25831 9.15837 10.225 9.54171 11.15 10.8334H3.01665ZM0.833313 14.1667H13.3333V15.8334H0.833313V14.1667ZM15 4.16671V0.833374H13.3333V4.16671H9.16665L9.35831 5.83337H17.325L16.1583 17.5H15V19.1667H16.4333C17.1333 19.1667 17.7083 18.625 17.7916 17.9417L19.1666 4.16671H15Z" fill="#061023"/>
</svg>
